PathFileType	4	(X/Y/Z)	C:/Users/Carlo/Dropbox/Carlos/SARAH/CongressoMarcha2025/WorkshopOpenSim/C3D/Caso02/Walking04.c3d.trc
DataRate	CameraRate	NumFrames	NumMarkers	Units	OrigDataRate	OrigDataStartFrame	OrigNumFrames
100.000000	100.000000	2	197	mm	100.000000	40	321
Frame#	Time	LFHD			RFHD			LBHD			RBHD			C7			STRN			LSHO			LUPA			LELB			LFRM			LWRA			LFIN			RSHO			RUPA			RELB			RFRM			RWRA			RWRB			RFIN			RASI			LANK			LHEE			LTOE			RTHI			RKNE			RTIB			RANK			RHEE			RTOE			PELO			PELA			PELL			PELP			LFEO			LFEA			LFEL			LFEP			LTIO			LTIA			LTIL			LTIP			LFOO			LFOA			LFOL			LFOP			RFEO			RFEA			RFEL			RFEP			RTIO			RTIA			RTIL			RTIP			RFOO			RFOA			RFOL			RFOP			LTOO			LTOA			LTOL			LTOP			RTOO			RTOA			RTOL			RTOP			HEDO			HEDA			HEDL			HEDP			LCLO			LCLA			LCLL			LCLP			RCLO			RCLA			RCLL			RCLP			TRXO			TRXA			TRXL			TRXP			LHUO			LHUA			LHUL			LHUP			LRAO			LRAA			LRAL			LRAP			LHNO			LHNA			LHNL			LHNP			RHUO			RHUA			RHUL			RHUP			RRAO			RRAA			RRAL			RRAP			RHNO			RHNA			RHNL			RHNP			LWRB			LTIB			LASI			LTHI			LKNE			RPSI			CLAV			RBAK			LPSI			T10			LHipAngles			LKneeAngles			LAbsAnkleAngle			LAnkleAngles			RHipAngles			RKneeAngles			RAnkleAngles			RAbsAnkleAngle			LPelvisAngles			RPelvisAngles			LFootProgressAngles			RFootProgressAngles			RNeckAngles			LNeckAngles			RSpineAngles			LSpineAngles			LShoulderAngles			LElbowAngles			LWristAngles			RShoulderAngles			RElbowAngles			RWristAngles			RThoraxAngles			LThoraxAngles			RHeadAngles			LHeadAngles			LHipPower			LKneePower			LAnklePower			RHipPower			RKneePower			RAnklePower			LWaistPower			RWaistPower			LNeckPower			RNeckPower			LShoulderPower			RShoulderPower			LElbowPower			RElbowPower			LWristPower			RWristPower			LGroundReactionForce			LNormalisedGRF			RGroundReactionForce			RNormalisedGRF			LAnkleForce			RAnkleForce			RKneeForce			LKneeForce			RHipForce			LHipForce			LWaistForce			RWaistForce			LNeckForce			RNeckForce			LShoulderForce			RShoulderForce			LElbowForce			RElbowForce			LWristForce			RWristForce			LGroundReactionMoment			RGroundReactionMoment			LAnkleMoment			RAnkleMoment			RKneeMoment			LKneeMoment			RHipMoment			LHipMoment			LWaistMoment			RWaistMoment			LNeckMoment			RNeckMoment			LShoulderMoment			RShoulderMoment			LElbowMoment			RElbowMoment			LWristMoment			RWristMoment			CentreOfMass			CentreOfMassFloor			
		X1	Y1	Z1	X2	Y2	Z2	X3	Y3	Z3	X4	Y4	Z4	X5	Y5	Z5	X6	Y6	Z6	X7	Y7	Z7	X8	Y8	Z8	X9	Y9	Z9	X10	Y10	Z10	X11	Y11	Z11	X12	Y12	Z12	X13	Y13	Z13	X14	Y14	Z14	X15	Y15	Z15	X16	Y16	Z16	X17	Y17	Z17	X18	Y18	Z18	X19	Y19	Z19	X20	Y20	Z20	X21	Y21	Z21	X22	Y22	Z22	X23	Y23	Z23	X24	Y24	Z24	X25	Y25	Z25	X26	Y26	Z26	X27	Y27	Z27	X28	Y28	Z28	X29	Y29	Z29	X30	Y30	Z30	X31	Y31	Z31	X32	Y32	Z32	X33	Y33	Z33	X34	Y34	Z34	X35	Y35	Z35	X36	Y36	Z36	X37	Y37	Z37	X38	Y38	Z38	X39	Y39	Z39	X40	Y40	Z40	X41	Y41	Z41	X42	Y42	Z42	X43	Y43	Z43	X44	Y44	Z44	X45	Y45	Z45	X46	Y46	Z46	X47	Y47	Z47	X48	Y48	Z48	X49	Y49	Z49	X50	Y50	Z50	X51	Y51	Z51	X52	Y52	Z52	X53	Y53	Z53	X54	Y54	Z54	X55	Y55	Z55	X56	Y56	Z56	X57	Y57	Z57	X58	Y58	Z58	X59	Y59	Z59	X60	Y60	Z60	X61	Y61	Z61	X62	Y62	Z62	X63	Y63	Z63	X64	Y64	Z64	X65	Y65	Z65	X66	Y66	Z66	X67	Y67	Z67	X68	Y68	Z68	X69	Y69	Z69	X70	Y70	Z70	X71	Y71	Z71	X72	Y72	Z72	X73	Y73	Z73	X74	Y74	Z74	X75	Y75	Z75	X76	Y76	Z76	X77	Y77	Z77	X78	Y78	Z78	X79	Y79	Z79	X80	Y80	Z80	X81	Y81	Z81	X82	Y82	Z82	X83	Y83	Z83	X84	Y84	Z84	X85	Y85	Z85	X86	Y86	Z86	X87	Y87	Z87	X88	Y88	Z88	X89	Y89	Z89	X90	Y90	Z90	X91	Y91	Z91	X92	Y92	Z92	X93	Y93	Z93	X94	Y94	Z94	X95	Y95	Z95	X96	Y96	Z96	X97	Y97	Z97	X98	Y98	Z98	X99	Y99	Z99	X100	Y100	Z100	X101	Y101	Z101	X102	Y102	Z102	X103	Y103	Z103	X104	Y104	Z104	X105	Y105	Z105	X106	Y106	Z106	X107	Y107	Z107	X108	Y108	Z108	X109	Y109	Z109	X110	Y110	Z110	X111	Y111	Z111	X112	Y112	Z112	X113	Y113	Z113	X114	Y114	Z114	X115	Y115	Z115	X116	Y116	Z116	X117	Y117	Z117	X118	Y118	Z118	X119	Y119	Z119	X120	Y120	Z120	X121	Y121	Z121	X122	Y122	Z122	X123	Y123	Z123	X124	Y124	Z124	X125	Y125	Z125	X126	Y126	Z126	X127	Y127	Z127	X128	Y128	Z128	X129	Y129	Z129	X130	Y130	Z130	X131	Y131	Z131	X132	Y132	Z132	X133	Y133	Z133	X134	Y134	Z134	X135	Y135	Z135	X136	Y136	Z136	X137	Y137	Z137	X138	Y138	Z138	X139	Y139	Z139	X140	Y140	Z140	X141	Y141	Z141	X142	Y142	Z142	X143	Y143	Z143	X144	Y144	Z144	X145	Y145	Z145	X146	Y146	Z146	X147	Y147	Z147	X148	Y148	Z148	X149	Y149	Z149	X150	Y150	Z150	X151	Y151	Z151	X152	Y152	Z152	X153	Y153	Z153	X154	Y154	Z154	X155	Y155	Z155	X156	Y156	Z156	X157	Y157	Z157	X158	Y158	Z158	X159	Y159	Z159	X160	Y160	Z160	X161	Y161	Z161	X162	Y162	Z162	X163	Y163	Z163	X164	Y164	Z164	X165	Y165	Z165	X166	Y166	Z166	X167	Y167	Z167	X168	Y168	Z168	X169	Y169	Z169	X170	Y170	Z170	X171	Y171	Z171	X172	Y172	Z172	X173	Y173	Z173	X174	Y174	Z174	X175	Y175	Z175	X176	Y176	Z176	X177	Y177	Z177	X178	Y178	Z178	X179	Y179	Z179	X180	Y180	Z180	X181	Y181	Z181	X182	Y182	Z182	X183	Y183	Z183	X184	Y184	Z184	X185	Y185	Z185	X186	Y186	Z186	X187	Y187	Z187	X188	Y188	Z188	X189	Y189	Z189	X190	Y190	Z190	X191	Y191	Z191	X192	Y192	Z192	X193	Y193	Z193	X194	Y194	Z194	X195	Y195	Z195	X196	Y196	Z196	X197	Y197	Z197	

41	0.4	984.8327026367192	1719.743774414063	283.0284423828126	986.0434570312505	1714.453491210938	156.2151336669922	1140.260620117188	1702.824340820313	283.2161865234376	1126.53466796875	1705.162963867188	141.8939361572266	1185.090454101563	1523.506225585938	204.9307708740236	1001.350341796875	1279.671142578125	213.1406402587892	1148.380981445313	1459.232177734375	414.7038574218752	1140.681518554688	1290.475341796875	463.134460449219	1148.577026367188	1116.350708007813	482.1615295410159	1086.535034179688	1002.429626464844	503.380554199219	974.5670776367192	911.1518554687505	462.2576904296877	956.0094604492192	835.206665039063	517.1115722656252	1116.944213867188	1460.229370117188	-5.092350006103517	1143.670288085938	1247.322509765625	-69.33760070800784	1167.874389648438	1128.859741210938	-82.23432159423831	1104.78125	994.623657226563	-85.4921569824219	1074.189331054688	872.973266601563	-44.89642333984376	1138.416259765625	867.5466918945317	-87.85295104980472	1082.626831054688	794.258911132813	-88.89274597167972	1046.122802734375	1038.256713867188	105.1765975952149	1171.860473632813	79.00728607177737	292.8264465332032	1225.411010742188	43.27199554443361	247.8532562255861	1030.090942382813	46.57183837890626	270.8218383789064	968.423706054688	697.7086181640627	29.11076164245607	954.2973632812505	544.7661132812502	56.83011245727542	1090.33056640625	337.8656616210939	57.33847808837893	1187.840576171875	180.8776855468751	81.33293914794925	1250.087890625	175.5445251464844	142.5303192138672	1084.77294921875	84.53446197509768	106.6665420532227	1103.675903320313	936.7307128906255	207.8526916503907	974.2011718750005	937.7196655273442	219.2481842041017	1115.060302734375	935.3141479492192	337.3244628906251	1104.78515625	1066.6982421875	209.1771392822267	1120.438720703125	521.761169433594	264.6598510742189	713.9263916015627	512.9964599609377	185.3750305175782	1041.359985351563	512.036315917969	671.1905517578127	1109.976440429688	935.818969726563	272.5296325683595	1172.43505859375	80.78737640380862	247.8653564453126	752.4291992187502	31.54201889038087	240.5495147705079	1167.036010742188	64.05677795410159	670.4461059570315	1122.94287109375	500.523620605469	263.8510131835939	1043.700317382813	70.77797698974612	276.849822998047	1046.455322265625	255.5832824707032	276.1931152343751	1067.667724609375	71.07190704345706	460.1160278320315	1226.946044921875	67.961051940918	252.889617919922	985.4883422851567	531.6982421875002	106.9959106445313	641.0699462890627	605.8211669921877	340.4489746093751	1203.377685546875	440.4099426269534	457.437438964844	1097.375732421875	937.6425781250005	143.1757354736329	1193.209350585938	186.5042419433594	125.6558456420899	869.0410766601567	-5.126937866210939	189.247787475586	1238.772216796875	234.2555084228517	501.814636230469	996.510375976563	513.3817138671877	107.986068725586	1085.194702148438	109.9994659423829	93.70379638671878	989.5267944335942	274.3193359375001	97.34394073486334	1063.307983398438	93.08874511718753	281.8569335937501	1248.091064453125	204.2311859130861	121.1218872070313	982.6184692382817	71.71697235107425	284.8365783691407	983.5368041992192	133.3187408447266	284.6176757812501	990.6076049804692	71.81495666503909	345.9252929687501	1043.700439453125	70.77797698974612	276.849822998047	1030.89599609375	78.58889007568362	84.56443786621097	999.006713867188	133.3621978759766	85.77780914306643	1023.600402832032	72.9519958496094	147.2821502685547	1085.19482421875	109.9994659423829	93.70381164550784	1169.153442382813	1632.485595703126	211.5873565673829	943.3525390625005	1652.485107421876	222.3718109130861	1180.1962890625	1634.939941406251	438.2464599609377	1189.011474609375	1858.530517578126	208.1721801757814	1144.99072265625	1402.931518554688	401.1858520507815	947.5286254882817	1392.528686523438	494.0369873046877	1157.760375976563	1614.982177734376	452.1001281738284	1052.435424804688	1454.381591796875	210.1172027587892	1115.541137695313	1403.883178710938	8.587258338928226	907.8471069335942	1393.874877929688	-53.94083404541018	1110.288208007813	1192.941162109375	59.79930114746097	1052.435424804688	1454.381591796875	210.1171875000001	1052.435424804688	1454.381713867188	210.1172027587892	835.266967773438	1443.014404296875	222.0339202880861	1040.412109375	1456.120239257813	-7.335708618164066	1063.68994140625	1236.8935546875	207.7561340332032	1165.848510742188	1111.957275390625	442.4797363281252	1459.716674804688	1133.1083984375	443.0844726562502	1169.41015625	1070.812866210938	150.7595520019532	1144.99072265625	1402.931640625	401.1858520507815	1005.502014160157	888.3832397460942	472.055114746094	1215.214233398438	741.0657348632815	495.3931579589846	1008.61279296875	852.4454956054692	217.2509918212892	1154.624267578125	1096.30712890625	444.5499572753909	916.096313476563	759.6268310546877	518.5066528320315	886.9645385742192	831.7369995117192	662.3148193359377	1049.839721679688	689.261901855469	580.8828735351565	1005.501892089844	888.3832397460942	472.0551757812502	1195.56591796875	1129.936645507813	-48.70416641235354	1465.580444335938	1221.183837890625	-107.8570022583008	1121.937622070313	1166.818237304688	-327.902313232422	1115.541015625	1403.883178710938	8.587329864501957	1109.986938476563	868.604614257813	-60.65737915039065	1344.505981445313	795.0791015625005	-132.2156372070313	1045.239379882813	901.0377807617192	-306.1805114746095	1189.575439453125	1111.643310546875	-49.540885925293	1082.181640625	711.1669921875002	-75.90802764892581	995.9177246093755	739.2395019531252	-208.4327087402345	949.6005859375005	725.9197387695315	13.51765441894532	1109.98681640625	868.604614257813	-60.65738296508792	1032.758911132813	870.363403320313	494.4985046386721	1144.343383789063	308.6245727539064	326.9665832519532	1065.115478515625	1035.8935546875	321.1756286621095	1093.429931640625	753.037536621094	377.5726928710939	1108.889770507813	520.3409423828127	324.0303649902345	1237.544677734375	1032.487060546875	122.3465957641602	1045.455322265625	1454.016235351563	210.500213623047	1264.588256835938	1359.298950195313	150.3944396972657	1247.564697265625	1038.903930664063	261.6660766601564	1251.705200195313	1262.857788085938	197.5681304931642	0.3333736658096315	16.04315567016602	-1.972924947738648	2.070600271224976	-10.10402297973633	4.971142292022707	0	0	7.818852424621586	2.506538152694703	-8.139111518859867	7.898922443389896	-5.623528003692629	28.63578033447267	14.4835958480835	29.26003456115724	-12.65698719024659	38.60054397583009	4.028074741363527	-17.82730293273926	1.428622126579285	0	0	1.360004901885987	-0.5838131308555605	-5.029928684234621	-0.4889670610427859	0.5838131308555605	5.029928684234621	-0.4889670610427859	-0.2053044736385347	-7.44855880737305	-90.88072204589847	-1.108351707458497	-8.289374351501468	-59.9516296386719	1.095135807991028	0.3187914788722993	-8.04550933837891	-1.095135807991028	-0.3187914788722993	-8.04550933837891	0.1525804102420807	1.861484766006471	3.447870492935182	-0.1525804102420807	-1.861484766006471	3.447870492935182	8.727688789367679	3.37923574447632	-0.6518329977989199	0	-5.8887968286403e-12	39.47574996948244	10.25031280517578	108.2256164550782	-1.8031325340271	10.30364418029786	11.46240234375	-13.63746547698975	-1.590277359294756e-15	-2.178679979480958e-12	35.25399017333986	0.6111563444137575	108.2789535522462	-8.598660469055179	0.6211374998092654	3.136735677719118	2.962262868881226	-0.6211374998092654	-3.136735677719118	2.962262868881226	-0.8622651696205144	2.724099397659303	5.020531654357912	0.8622651696205144	-2.724099397659303	5.020531654357912	nan	nan	nan	nan	nan	nan	nan	nan	nan	0	0.161774218082428	0	0	0.208075374364853	0	0	0.02553581632673742	0	nan	nan	nan	nan	nan	nan	nan	nan	nan	nan	nan	nan	0	-0.0001237560063600541	0	0	-0.02244074270129204	0	0	0.01990682259202004	0	0	0.0003905399353243413	0	0	0.0003459810686763377	0	0	4.788635487784634e-05	0	nan	nan	nan	nan	nan	nan	nan	nan	nan	nan	nan	nan	nan	nan	nan	-0.02116589061915875	0.02603586018085481	-0.1983388662338258	0.02349173650145532	0.4648954272270205	-0.08762340992689135	nan	nan	nan	-0.1038822308182717	1.165332436561585	0.3115496635437013	nan	nan	nan	nan	nan	nan	nan	nan	nan	nan	nan	nan	nan	nan	nan	-0.002881875960156322	0.3709369897842408	0.05250147357583049	0.08885056525468829	0.3738083243370057	0.06545747816562655	0.01697255112230778	0.1562494486570359	-0.08148857206106189	0.04613666981458665	0.1501765549182892	-0.09572802484035497	-0.02249707281589509	0.04508728161454202	0.009359661489725116	0.02000701241195203	0.04575099796056749	0.02419319562613965	nan	nan	nan	nan	nan	nan	nan	nan	nan	2.842170773633813e-15	0.3057919442653657	-18.94514465332032	28.29880523681642	-0.8810404539108281	60.85586166381839	nan	nan	nan	54.62612915039065	-5.833528995513918	-87.51168060302737	nan	nan	nan	nan	nan	nan	nan	nan	nan	nan	nan	nan	nan	nan	nan	-3.741249561309816	2.670596599578858	-0.04982578009366992	27.30632209777833	-5.694179058074953	-14.52949905395509	-3.891302347183229	0.2548211216926576	-13.7665023803711	10.10971164703369	0.1728719621896744	-20.70951652526856	1.292337656021119	5.684341759025861e-16	0.5755081772804262	1.350886940956116	-8.644936314894417e-16	1.53288769721985	1111.064208984375	1016.3076171875	202.0534057617189	1111.064208984375	0	202.0534057617189	
42	0.41	973.1530761718755	1720.135131835938	283.7483825683595	974.5975952148442	1714.568725585938	156.9211730957032	1128.662719726563	1703.127563476563	284.1494750976564	1115.141845703125	1705.224609375001	142.7901000976563	1173.648071289063	1523.539428710938	206.1067504882814	989.6348266601567	1280.003295898438	214.4007110595704	1136.750732421875	1459.62451171875	415.9249267578127	1128.419555664063	1290.904296875	464.7115783691409	1134.856201171875	1116.657348632813	484.0052185058596	1070.259521484375	1003.986572265625	504.9842834472659	956.065551757813	915.7036132812505	463.6338500976565	935.5523071289067	840.1083984375005	518.3126220703127	1106.107055664063	1460.237548828125	-4.022072315216066	1134.478271484375	1247.485473632813	-68.06233215332034	1159.424438476563	1129.191284179688	-80.72966766357425	1097.36474609375	994.4702148437505	-84.21266937255862	1067.261474609375	872.711303710938	-44.00322341918947	1132.12109375	867.560180664063	-86.03947448730472	1076.774780273438	793.9385375976567	-87.72569274902347	1033.821044921875	1038.56591796875	106.4056701660157	1171.764770507813	79.21549987792972	292.6216125488282	1225.216918945313	43.62391662597658	247.6491699218751	1030.022705078125	46.43247222900392	270.9183044433595	951.997680664063	700.027038574219	31.22772026062013	935.6362304687505	546.5720214843752	60.06199645996097	1062.142944335938	332.3158569335939	60.25001525878909	1152.26220703125	171.0067901611329	84.69317626953128	1213.937622070313	162.113998413086	146.0365753173829	1043.603271484375	81.66739654541018	109.6316223144532	1091.57275390625	936.790161132813	208.9009704589845	962.129272460938	937.8656616210942	220.6382751464845	1103.295654296875	935.1126098632817	338.3393554687501	1092.795288085938	1066.754028320313	210.4746093750001	1117.407836914063	522.0781860351565	265.2929077148439	710.6791992187502	504.563415527344	188.9341735839844	1041.497436523438	510.3909301757815	672.3145751953127	1098.042236328125	935.747436523438	273.559295654297	1171.537719726563	80.98542785644534	247.6570281982423	751.3388671875002	29.41572952270509	247.749237060547	1173.674072265625	64.33436584472659	670.6755981445315	1120.01220703125	500.854187011719	264.4443359375001	1042.939697265625	70.50355529785159	277.0771484375001	1045.143920898438	255.3173828125001	276.9802246093751	1067.572143554688	70.30581665039065	460.2551879882815	1226.104614257813	68.30605316162112	252.444061279297	966.7632446289067	533.248718261719	110.2003402709962	623.9742431640627	613.8066406250002	344.417694091797	1184.347534179688	440.1158447265627	460.6785583496096	1085.103637695313	937.8329467773442	144.2426757812501	1158.539916992188	176.6996612548829	128.8880310058594	824.6207885742192	0.7687835693359379	198.9810180664064	1212.092163085938	225.2641143798829	505.903015136719	976.8895874023442	514.4221191406252	111.1870651245118	1045.897094726563	107.2745971679688	96.74996948242193	960.880004882813	277.3450317382814	100.5909729003907	1022.845581054688	91.50280761718753	284.8629455566407	1214.441772460938	190.9042053222657	124.4152526855469	981.884643554688	71.23603820800784	285.2881469726564	982.6193847656255	132.8406372070313	285.2557983398439	990.0954589843755	71.17015075683597	346.3475036621095	1042.939575195313	70.50351715087893	277.077117919922	989.7155761718755	79.398063659668	87.528190612793	961.3765258789067	136.0882263183594	88.80851745605472	982.0317382812505	74.14080810546878	150.2325134277344	1045.897216796875	107.2746276855469	96.74995422363287	1157.570434570313	1632.659545898438	212.684783935547	931.7637329101567	1652.758544921876	223.1570281982423	1168.339111328125	1635.542236328126	439.3520507812502	1177.51220703125	1858.690673828126	208.8627929687501	1133.291748046875	1403.310424804688	402.4810485839846	935.648315429688	1393.320678710938	495.1794738769534	1146.32470703125	1615.489746093751	453.1346740722659	1040.972045898438	1454.651000976563	211.1777954101564	1104.583129882813	1403.901489257813	9.686100006103519	896.877075195313	1394.161499023438	-53.43373107910159	1098.873291015625	1192.831909179688	61.0452575683594	1040.971923828125	1454.65087890625	211.1777343750001	1040.97216796875	1454.65087890625	211.1777496337892	823.666870117188	1443.619506835938	223.2006988525392	1028.845458984375	1456.403930664063	-6.394622802734379	1051.889404296875	1237.020263671875	208.8157501220704	1151.817260742188	1112.034912109375	444.2156677246096	1446.038940429688	1130.950805664063	445.6328430175784	1155.894897460938	1070.475830078125	152.3552551269532	1133.291748046875	1403.310302734375	402.4810791015627	986.394409179688	892.0805053710942	473.2246093750002	1192.692626953125	740.1613769531252	497.7392578125002	989.953979492188	855.8020019531255	218.4490509033204	1140.237670898438	1096.638061523438	446.2462158203127	893.5100097656255	765.6126708984377	519.637145996094	866.9268188476567	838.0861206054692	663.9171142578127	1025.576538085938	691.2537841796877	581.3213500976565	986.394409179688	892.0805053710942	473.2246093750002	1186.939819335938	1130.491577148438	-47.06267547607423	1456.580932617188	1223.735595703125	-104.9862518310547	1114.365844726563	1166.666015625	-326.670379638672	1104.583129882813	1403.9013671875	9.68613433837891	1103.305908203125	868.5261840820317	-59.24694824218753	1338.700317382813	796.6494750976567	-129.6441497802735	1039.49072265625	900.334838867188	-305.1095275878907	1181.08544921875	1112.154052734375	-47.9155960083008	1076.619506835938	710.8383789062502	-74.58893585205081	992.0468750000005	738.1728515625002	-208.4295043945314	942.6482543945317	724.9934082031252	12.95720672607423	1103.305908203125	868.5261840820317	-59.24696731567386	1013.197082519532	873.2272338867192	495.4965515136721	1143.596801757813	308.7949523925782	327.2196044921876	1053.408935546875	1035.762817382813	322.6849365234376	1086.246215820313	752.9573974609377	378.3179321289064	1106.319946289063	520.3710937500002	324.7437133789064	1225.049560546875	1032.397094726563	122.6009979248047	1033.99169921875	1454.29638671875	211.563934326172	1252.942016601563	1359.078369140625	151.9353179931641	1236.030883789063	1038.956420898438	261.7673645019532	1239.82861328125	1262.78515625	198.5481567382814	0.1585670560598374	15.7596025466919	-3.246246576309206	1.907558083534242	-10.69943714141846	4.03139638900757	0	0	7.914226531982425	2.299384593963624	-7.336895942687992	7.97996807098389	-5.339163303375246	28.55700302124025	15.34527301788331	28.38581275939943	-12.8251714706421	36.68523406982423	4.277200222015383	-18.79217910766602	2.373572349548341	0	0	2.246976613998414	-0.6937075257301333	-5.181344509124758	-0.5389551520347597	0.6937075257301333	5.181344509124758	-0.5389551520347597	-0.03031416051089765	-7.658969402313236	-90.6873474121094	-1.169722557067872	-8.364656448364261	-63.61002349853518	1.21101450920105	0.4094499647617342	-7.979979991912845	-1.21101450920105	-0.4094499647617342	-7.979979991912845	0.2617013156414033	1.987040281295777	3.4012348651886	-0.2617013156414033	-1.987040281295777	3.4012348651886	8.787821769714359	3.512886524200441	-0.2771019935607911	7.95138679647378e-16	-1.924235510514239e-12	40.31587600708009	10.35150241851807	107.6305923461915	-1.644293665885926	10.17879486083985	11.26062679290772	-14.19997787475587	0	-8.428470052966601e-13	35.2689666748047	0.6396884918212893	107.7305526733399	-8.575244903564457	0.6210584640502932	3.162930488586428	2.871772050857545	-0.6210584640502932	-3.162930488586428	2.871772050857545	-0.9649822711944585	2.64521622657776	5.041897773742678	0.9649822711944585	-2.64521622657776	5.041897773742678	nan	nan	nan	nan	nan	nan	nan	nan	nan	0	-0.08782210201025012	0	0	0.1000630408525467	0	0	0.02546935155987741	0	nan	nan	nan	nan	nan	nan	nan	nan	nan	nan	nan	nan	0	-0.003961306530982258	0	0	-0.01954629085958005	0	0	0.01072754245251418	0	0	0.0008780704811215405	0	0	8.552497456548738e-05	0	0	-2.674082134035417e-05	0	nan	nan	nan	nan	nan	nan	nan	nan	nan	nan	nan	nan	nan	nan	nan	-0.06938198208808902	-0.007632635068148378	-0.1487992554903031	-0.04165836051106454	0.4228529036045077	-0.2338130325078965	nan	nan	nan	-0.162960097193718	1.247100591659546	-0.01571290194988251	nan	nan	nan	nan	nan	nan	nan	nan	nan	nan	nan	nan	nan	nan	nan	-0.03494641184806825	0.359762877225876	0.05509741231799128	0.0792108699679375	0.3750194609165194	0.06812058389186862	-0.02168135903775693	0.1529826223850251	-0.06653502583503726	0.04143046215176584	0.1513843536376954	-0.09540306031703955	-0.00260372692719102	0.04869798570871356	0.01507935579866172	0.02039238810539246	0.04624342918395997	0.02125770598649979	nan	nan	nan	nan	nan	nan	nan	nan	nan	1.136868351805172e-15	6.330945491790775	-13.660475730896	43.88297271728517	5.47798538208008	17.89262962341309	nan	nan	nan	57.69882583618167	-21.13290596008301	66.59138488769534	nan	nan	nan	nan	nan	nan	nan	nan	nan	nan	nan	nan	nan	nan	nan	12.02392482757569	-2.130210161209107	8.006327629089359	24.02781867980958	-5.033853530883791	-13.43951416015626	3.379597663879396	0.0739591643214226	-7.56340312957764	8.920751571655277	0.1434575021266938	-20.44539070129395	0.01369667146354914	-5.210647053603366e-16	0.8775035738945012	1.349721670150757	-3.789561349149106e-16	1.310671329498291	1098.879150390625	1016.328002929688	203.3085021972657	1098.879150390625	0	203.3085021972657	
